# xmcd
#
# Track frame offsets:
#	150
#	12842
#	24560
#	35685
#	48085
#	56340
#	67192
#	79822
#	92995
#	104270
#	114202
#	125775
#	140630
#	152095
#	165697
#	176425
#
# Disc length: 2505 seconds
#
# Revision: 0
# Processed by: cddbd v1.4PL0 Copyright (c) Steve Scherf et al.
# Submitted via: dBpowerAMP V4.0
#
DISCID=d409c710
DTITLE=Tom Jones - Tom Jones Goes Country
DYEAR=1900
DGENRE=Country
TTITLE0=Let Your Love Flow
TTITLE1=Green Green Grass Of Home (w. Marie Osmond)
TTITLE2=The Way You Do The Things You Do
TTITLE3=The Most Beautiful Girl In The World
TTITLE4=On The Road Again
TTITLE5=Please Release Me
TTITLE6=You Don't Have To Say You Love Me
TTITLE7=Behind Closed Doors
TTITLE8=Streets Of Laredo
TTITLE9=Nine To Five (w. Tanya Tucker)
TTITLE10=I'm Leaving It All Up To You
TTITLE11=Help Me Make It Through The Night
TTITLE12=Four Walls
TTITLE13=You'r My World
TTITLE14=Say You'll Stay Until Tomorrow
TTITLE15=I'm So Lonesome I Could Cry
EXTD=
EXTT0=
EXTT1=
EXTT2=
EXTT3=
EXTT4=
EXTT5=
EXTT6=
EXTT7=
EXTT8=
EXTT9=
EXTT10=
EXTT11=
EXTT12=
EXTT13=
EXTT14=
EXTT15=
PLAYORDER=
